<?xml version="1.0" standalone="no"?><!DOCTYPE svg PUBLIC "-//W3C//DTD SVG 1.1//EN" "http://www.w3.org/Graphics/SVG/1.1/DTD/svg11.dtd"><svg t="1529889165883" class="icon" style="" viewBox="0 0 1024 1024" version="1.1" xmlns="http://www.w3.org/2000/svg" p-id="5266" xmlns:xlink="http://www.w3.org/1999/xlink" width="200" height="200"><defs><style type="text/css">@font-face { font-family: SimSun; unicode-range: U+20-FFFF; src: local("Noto Serif CJK SC"); }
@font-face { font-family: 宋体; unicode-range: U+20-FFFF; src: local("Noto Serif CJK SC"); }
@font-face { font-family: NSimSun; unicode-range: U+20-FFFF; src: local("Noto Serif CJK SC"); }
@font-face { font-family: 新宋体; unicode-range: U+20-FFFF; src: local("Noto Serif CJK SC"); }
@font-face { font-family: Arial; unicode-range: U+20-FFFF; src: local("Neue Haas Unica W1G"); }
@font-face { font-family: Helvetica; unicode-range: U+20-FFFF; src: local("Neue Haas Grotesk Text Pro"); }
@font-face { font-family: Helvetica; unicode-range: U+20-FFFF; src: local("Neue Haas Grotesk Text Pro"); }
@font-face { font-family: "Helvetica Neue"; unicode-range: U+20-FFFF; src: local("Neue Haas Grotesk Text Pro"); }
@font-face { font-family: Tahoma; unicode-range: U+20-52F; src: local("Neue Haas Unica W1G"); }
@font-face { font-family: Verdana; unicode-range: U+20-52F; src: local("SF UI Text Regular"); }
@font-face { font-family: "PingFang SC"; unicode-range: U+20-52F; src: local("SF UI Text"); }
@font-face { font-family: "Courier New"; unicode-range: U+4E00-9FFF; src: local("XHei WP Mono"); }
@font-face { font-family: Courier; unicode-range: U+4E00-9FFF; src: local("XHei WP Mono"); }
@font-face { font-family: "Hiragino Sans GB"; unicode-range: U+2E80-FFFF; src: local("XHei WP"); }
@font-face { font-family: "MS PGothic"; unicode-range: U+2E80-FFFF; src: local("Inziu Roboto J"); }
@font-face { font-family: "ＭＳ Ｐゴシック"; unicode-range: U+2E80-FFFF; src: local("Inziu Roboto J"); }
@font-face { font-family: "MS PMincho"; unicode-range: U+2E80-FFFF; src: local("Noto Serif CJK J"); }
@font-face { font-family: "Microsoft JhengHei"; unicode-range: U+2E80-FFFF; src: local("Inziu Roboto TC"); }
@font-face { font-family: 微軟正黑; unicode-range: U+2E80-FFFF; src: local("Inziu Roboto TC"); }
@font-face { font-family: PMingLiU; unicode-range: U+2E80-FFFF; src: local("Noto Serif CJK TC"); }
@font-face { font-family: 新細明體; unicode-range: U+2E80-FFFF; src: local("Noto Serif CJK TC"); }
@font-face { font-family: MingLiU; unicode-range: U+2E80-FFFF; src: local("Noto Serif CJK TC"); }
@font-face { font-family: 細明體; unicode-range: U+2E80-FFFF; src: local("Noto Serif CJK TC"); }
</style></defs><path d="M438.857198 877.714286l54.857143-256-54.857143-73.142857-73.142857-36.571429zM585.142912 877.714286l73.142857-365.714286-73.142857 36.571429-54.857143 73.142857zM676.571483 300.544q-1.170286-2.267429-2.267429-3.437714-5.705143-4.534857-54.857143-4.534857-40.009143 0-95.451429 10.825143-4.022857 1.170286-11.995429 1.170286t-11.995429-1.170286q-55.442286-10.825143-95.451429-10.825143-49.152 0-54.857143 4.534857-1.170286 1.170286-2.267429 3.437714 1.170286 10.313143 2.267429 15.433143 1.170286 1.682286 4.315429 3.730286t4.315429 5.997714q1.170286 2.267429 4.315429 11.702857t4.022857 11.702857 4.315429 9.728 4.827429 9.728 5.12 7.972571 6.875429 7.68 7.972571 5.412571 10.020571 4.534857 11.702857 2.267429 13.970286 1.170286q20.553143 0 33.718857-7.168t18.578286-17.115429 8.265143-19.748571 6.582857-16.822857 10.020571-7.168l6.875429 0q6.290286 0 10.020571 7.168t6.582857 16.822857 8.265143 19.748571 18.578286 17.115429 33.718857 7.168q7.460571 0 13.970286-1.170286t11.702857-2.267429 10.020571-4.534857 7.972571-5.412571 6.875429-7.68 5.12-7.972571 4.827429-9.728 4.315429-9.728 4.022857-11.702857 4.315429-11.702857q1.170286-4.022857 4.315429-5.997714t4.315429-3.730286q1.170286-5.12 2.267429-15.433143zM914.285769 802.889143q0 69.12-41.691429 108.544t-110.884571 39.424l-499.419429 0q-69.12 0-110.884571-39.424t-41.691429-108.544q0-34.889143 2.56-67.437714t10.825143-71.68 21.430857-70.582857 36.278857-59.172571 53.394286-42.569143l-51.419429-125.732571 122.294857 0q-12.580571-36.571429-12.580571-73.142857 0-6.875429 1.170286-18.285714-110.884571-22.820571-110.884571-54.857143 0-32.548571 120.027429-56.539429 9.728-35.401143 29.403429-76.580571t40.301714-65.170286q18.285714-21.138286 43.446857-21.138286 17.115429 0 47.981714 17.700571t47.981714 17.700571 47.981714-17.700571 47.981714-17.700571q25.161143 0 43.446857 21.138286 20.553143 23.990857 40.301714 65.170286t29.403429 76.580571q120.027429 23.990857 120.027429 56.539429 0 32.036571-110.884571 54.857143 4.022857 46.299429-11.410286 91.428571l122.294857 0-46.884571 128.585143q35.986286 18.870857 61.44 55.149714t37.449143 81.993143 16.603429 86.601143 4.534857 84.845714z" p-id="5267" fill="#ffffff"></path></svg>