<?xml version="1.0" standalone="no"?><!DOCTYPE svg PUBLIC "-//W3C//DTD SVG 1.1//EN" "http://www.w3.org/Graphics/SVG/1.1/DTD/svg11.dtd"><svg t="1529892347073" class="icon" style="" viewBox="0 0 1024 1024" version="1.1" xmlns="http://www.w3.org/2000/svg" p-id="6056" xmlns:xlink="http://www.w3.org/1999/xlink" width="200" height="200"><defs><style type="text/css">@font-face { font-family: SimSun; unicode-range: U+20-FFFF; src: local("Noto Serif CJK SC"); }
@font-face { font-family: 宋体; unicode-range: U+20-FFFF; src: local("Noto Serif CJK SC"); }
@font-face { font-family: NSimSun; unicode-range: U+20-FFFF; src: local("Noto Serif CJK SC"); }
@font-face { font-family: 新宋体; unicode-range: U+20-FFFF; src: local("Noto Serif CJK SC"); }
@font-face { font-family: Arial; unicode-range: U+20-FFFF; src: local("Neue Haas Unica W1G"); }
@font-face { font-family: Helvetica; unicode-range: U+20-FFFF; src: local("Neue Haas Grotesk Text Pro"); }
@font-face { font-family: Helvetica; unicode-range: U+20-FFFF; src: local("Neue Haas Grotesk Text Pro"); }
@font-face { font-family: "Helvetica Neue"; unicode-range: U+20-FFFF; src: local("Neue Haas Grotesk Text Pro"); }
@font-face { font-family: Tahoma; unicode-range: U+20-52F; src: local("Neue Haas Unica W1G"); }
@font-face { font-family: Verdana; unicode-range: U+20-52F; src: local("SF UI Text Regular"); }
@font-face { font-family: "PingFang SC"; unicode-range: U+20-52F; src: local("SF UI Text"); }
@font-face { font-family: "Courier New"; unicode-range: U+4E00-9FFF; src: local("XHei WP Mono"); }
@font-face { font-family: Courier; unicode-range: U+4E00-9FFF; src: local("XHei WP Mono"); }
@font-face { font-family: "Hiragino Sans GB"; unicode-range: U+2E80-FFFF; src: local("XHei WP"); }
@font-face { font-family: "MS PGothic"; unicode-range: U+2E80-FFFF; src: local("Inziu Roboto J"); }
@font-face { font-family: "ＭＳ Ｐゴシック"; unicode-range: U+2E80-FFFF; src: local("Inziu Roboto J"); }
@font-face { font-family: "MS PMincho"; unicode-range: U+2E80-FFFF; src: local("Noto Serif CJK J"); }
@font-face { font-family: "Microsoft JhengHei"; unicode-range: U+2E80-FFFF; src: local("Inziu Roboto TC"); }
@font-face { font-family: 微軟正黑; unicode-range: U+2E80-FFFF; src: local("Inziu Roboto TC"); }
@font-face { font-family: PMingLiU; unicode-range: U+2E80-FFFF; src: local("Noto Serif CJK TC"); }
@font-face { font-family: 新細明體; unicode-range: U+2E80-FFFF; src: local("Noto Serif CJK TC"); }
@font-face { font-family: MingLiU; unicode-range: U+2E80-FFFF; src: local("Noto Serif CJK TC"); }
@font-face { font-family: 細明體; unicode-range: U+2E80-FFFF; src: local("Noto Serif CJK TC"); }
</style></defs><path d="M719.026087 489.73913l-189.217391 0L529.808696 207.026087c0-22.26087-17.808696-40.069565-40.069565-40.069565s-40.069565 17.808696-40.069565 40.069565l0 322.782609c0 22.26087 17.808696 40.069565 40.069565 40.069565l231.513043 0c22.26087 0 40.069565-17.808696 40.069565-40.069565S743.513043 489.73913 719.026087 489.73913zM995.06087 184.765217C1015.095652 166.956522 1024 142.469565 1024 115.756522s-11.130435-51.2-28.93913-69.008696c-37.843478-37.843478-100.173913-37.843478-138.017391 0l-51.2 51.2c-2.226087 2.226087-2.226087 4.452174-4.452174 4.452174-71.234783-48.973913-158.052174-77.913043-251.547826-77.913043l-75.686957 0c-93.495652 0-180.313043 28.93913-251.547826 77.913043C220.382609 102.4 220.382609 100.173913 218.156522 100.173913L166.956522 46.747826c-35.617391-35.617391-100.173913-35.617391-138.017391 0C8.904348 64.556522 0 89.043478 0 115.756522s11.130435 51.2 28.93913 69.008696L89.043478 244.869565C46.747826 313.878261 22.26087 394.017391 22.26087 478.608696l0 75.686957c0 249.321739 202.573913 451.895652 451.895652 451.895652l75.686957 0c249.321739 0 451.895652-202.573913 451.895652-451.895652l0-75.686957c0-84.591304-24.486957-164.730435-64.556522-233.73913L995.06087 184.765217zM914.921739 104.626087c6.678261-6.678261 13.356522-6.678261 22.26087 0 4.452174 4.452174 4.452174 8.904348 4.452174 11.130435s0 6.678261-4.452174 11.130435L885.982609 178.086957c-6.678261-6.678261-13.356522-15.582609-20.034783-22.26087L914.921739 104.626087zM86.817391 126.886957C82.365217 122.434783 82.365217 117.982609 82.365217 115.756522s0-6.678261 4.452174-11.130435c6.678261-6.678261 13.356522-6.678261 22.26087 0L158.052174 155.826087C151.373913 162.504348 144.695652 171.408696 138.017391 178.086957L86.817391 126.886957zM919.373913 554.295652c0 202.573913-164.730435 369.530435-369.530435 369.530435l-75.686957 0c-202.573913 0-369.530435-164.730435-369.530435-369.530435l0-75.686957c0-202.573913 164.730435-369.530435 369.530435-369.530435l75.686957 0c202.573913 0 369.530435 164.730435 369.530435 369.530435L919.373913 554.295652z" p-id="6057" fill="#d81e06"></path></svg>