<?xml version="1.0" standalone="no"?><!DOCTYPE svg PUBLIC "-//W3C//DTD SVG 1.1//EN" "http://www.w3.org/Graphics/SVG/1.1/DTD/svg11.dtd"><svg t="1529892410150" class="icon" style="" viewBox="0 0 1027 1024" version="1.1" xmlns="http://www.w3.org/2000/svg" p-id="7702" xmlns:xlink="http://www.w3.org/1999/xlink" width="200.5859375" height="200"><defs><style type="text/css">@font-face { font-family: SimSun; unicode-range: U+20-FFFF; src: local("Noto Serif CJK SC"); }
@font-face { font-family: 宋体; unicode-range: U+20-FFFF; src: local("Noto Serif CJK SC"); }
@font-face { font-family: NSimSun; unicode-range: U+20-FFFF; src: local("Noto Serif CJK SC"); }
@font-face { font-family: 新宋体; unicode-range: U+20-FFFF; src: local("Noto Serif CJK SC"); }
@font-face { font-family: Arial; unicode-range: U+20-FFFF; src: local("Neue Haas Unica W1G"); }
@font-face { font-family: Helvetica; unicode-range: U+20-FFFF; src: local("Neue Haas Grotesk Text Pro"); }
@font-face { font-family: Helvetica; unicode-range: U+20-FFFF; src: local("Neue Haas Grotesk Text Pro"); }
@font-face { font-family: "Helvetica Neue"; unicode-range: U+20-FFFF; src: local("Neue Haas Grotesk Text Pro"); }
@font-face { font-family: Tahoma; unicode-range: U+20-52F; src: local("Neue Haas Unica W1G"); }
@font-face { font-family: Verdana; unicode-range: U+20-52F; src: local("SF UI Text Regular"); }
@font-face { font-family: "PingFang SC"; unicode-range: U+20-52F; src: local("SF UI Text"); }
@font-face { font-family: "Courier New"; unicode-range: U+4E00-9FFF; src: local("XHei WP Mono"); }
@font-face { font-family: Courier; unicode-range: U+4E00-9FFF; src: local("XHei WP Mono"); }
@font-face { font-family: "Hiragino Sans GB"; unicode-range: U+2E80-FFFF; src: local("XHei WP"); }
@font-face { font-family: "MS PGothic"; unicode-range: U+2E80-FFFF; src: local("Inziu Roboto J"); }
@font-face { font-family: "ＭＳ Ｐゴシック"; unicode-range: U+2E80-FFFF; src: local("Inziu Roboto J"); }
@font-face { font-family: "MS PMincho"; unicode-range: U+2E80-FFFF; src: local("Noto Serif CJK J"); }
@font-face { font-family: "Microsoft JhengHei"; unicode-range: U+2E80-FFFF; src: local("Inziu Roboto TC"); }
@font-face { font-family: 微軟正黑; unicode-range: U+2E80-FFFF; src: local("Inziu Roboto TC"); }
@font-face { font-family: PMingLiU; unicode-range: U+2E80-FFFF; src: local("Noto Serif CJK TC"); }
@font-face { font-family: 新細明體; unicode-range: U+2E80-FFFF; src: local("Noto Serif CJK TC"); }
@font-face { font-family: MingLiU; unicode-range: U+2E80-FFFF; src: local("Noto Serif CJK TC"); }
@font-face { font-family: 細明體; unicode-range: U+2E80-FFFF; src: local("Noto Serif CJK TC"); }
</style></defs><path d="M592.10752 592.19968m-49.54112 0a9.676 9.676 0 1 0 99.08224 0 9.676 9.676 0 1 0-99.08224 0Z" p-id="7703" fill="#d81e06"></path><path d="M431.08352 592.19968m-49.54112 0a9.676 9.676 0 1 0 99.08224 0 9.676 9.676 0 1 0-99.08224 0Z" p-id="7704" fill="#d81e06"></path><path d="M270.08 592.19968m-49.54112 0a9.676 9.676 0 1 0 99.08224 0 9.676 9.676 0 1 0-99.08224 0Z" p-id="7705" fill="#d81e06"></path><path d="M658.7392 6.97344C477.76768-7.38304 312.86784 84.68992 257.36704 230.76352c-3.34848 8.83712-2.13504 18.20672 2.29888 25.76384C108.34432 311.54176 1.98656 439.71584 1.98656 588.6976c0 89.09312 37.60128 173.33248 106.37824 239.37536L45.70624 976.91136c-5.0176 11.91936-1.82272 25.71776 7.92064 34.22208 5.59616 4.87424 12.6208 7.36768 19.70176 7.36768 5.25312 0 10.52672-1.37216 15.26784-4.17792l162.78528-96.46592c24.3968 9.35936 49.78688 16.73728 75.68896 21.97504 100.5824 20.34176 210.15552 7.91552 300.73344-34.37056 15.0016-6.99392 21.48352-24.832 14.48448-39.82336-7.00416-15.0016-24.832-21.49376-39.81824-14.4896-79.09376 36.92032-175.3856 47.76448-263.52128 29.95712-27.04384-5.47328-53.43744-13.60384-78.44352-24.192-8.74496-3.68128-18.7392-3.01056-26.94144 1.82784l-97.38752 57.70752 35.64032-84.64384c5.04832-12.00128 1.78688-25.87136-8.08448-34.3552-65.65888-56.46336-101.82144-130.5856-101.82144-208.74752 0-165.93408 162.83136-300.93824 362.97728-300.93824 200.15104 0 362.98752 135.00416 362.98752 300.93824 0 70.4512-30.06976 139.00288-84.67968 193.03424-11.76064 11.648-11.84768 30.62272-0.21504 42.38848 11.66336 11.74528 30.60736 11.84768 42.38848 0.21504 66.05312-65.38752 102.43584-149.06368 102.43584-235.63776 0-198.9888-189.73184-360.86784-422.92224-360.86784-36.56704 0-72.05376 3.98336-105.91744 11.46368 50.84672-113.80736 185.99424-184.27904 335.0272-172.57984 183.7568 14.55616 323.44576 150.15936 311.38304 302.26944-4.20864 53.2224-26.7008 103.44448-65.03424 145.23904-11.19744 12.19584-10.37312 31.16032 1.82784 42.3424 5.74976 5.2736 13.0048 7.8848 20.23424 7.8848 8.10496 0 16.1792-3.27168 22.08768-9.71264 47.46752-51.74784 75.3408-114.33472 80.63488-181.0176C1039.78496 188.65664 875.4176 24.1408 658.7392 6.97344z" p-id="7706" fill="#d81e06"></path></svg>